<svg xmlns="http://www.w3.org/2000/svg" xmlns:xlink="http://www.w3.org/1999/xlink" viewBox="0 0 264 36"><defs><linearGradient id="linear-gradient" x1="79.17" x2="83.45" y1="27.31" y2="27.31" gradientUnits="userSpaceOnUse"><stop offset="0" stop-color="#5665ae"/><stop offset="1" stop-color="#51aee2"/></linearGradient><linearGradient xlink:href="#linear-gradient" id="linear-gradient-2" x1="75.66" x2="79.49" y1="25.7" y2="25.7"/><linearGradient xlink:href="#linear-gradient" id="linear-gradient-3" x1="237.15" x2="240.98" y1="25.13" y2="25.13"/><linearGradient id="linear-gradient-4" x1="7939.18" x2="7939.18" y1="-5362.17" y2="-5343.61" gradientTransform="scale(-1 1) rotate(32.53 -5329.836 -16570.542)" gradientUnits="userSpaceOnUse"><stop offset="0" stop-color="#730f34"/><stop offset=".05" stop-color="#851344"/><stop offset=".15" stop-color="#9e195b"/><stop offset=".23" stop-color="#ad1d69"/><stop offset=".3" stop-color="#b31f6e"/><stop offset=".36" stop-color="#b32f71"/><stop offset=".48" stop-color="#b34576"/><stop offset=".55" stop-color="#b44e78"/><stop offset=".61" stop-color="#b34576"/><stop offset=".7" stop-color="#b32e71"/><stop offset=".75" stop-color="#b31f6e"/><stop offset=".81" stop-color="#ad1d69"/><stop offset=".88" stop-color="#9e195b"/><stop offset=".95" stop-color="#851344"/><stop offset="1" stop-color="#730f34"/></linearGradient><clipPath id="clippath"><path d="m199.08 32.48 5.75 2.34c2.66 1.08 5.7-.2 6.79-2.86a4.35 4.35 0 0 0-2.39-5.66c-1.87-.76-4.01.14-4.77 2.01-.65 1.59.12 3.4 1.7 4.05 1.36.55 2.92-.1 3.47-1.46.19-.46-.03-.99-.5-1.18s-.99.03-1.18.5-.68.65-1.12.47c-.66-.27-.98-1.03-.71-1.7.39-.95 1.47-1.4 2.41-1.02 1.3.53 1.92 2.01 1.39 3.31a3.41 3.41 0 0 1-4.43 1.87l-5.75-2.34c-.46-.19-.99.03-1.18.5s.03.99.5 1.18Z" style="fill:none"/></clipPath><style>.cls-4{fill:#010101}.cls-5{fill:#ee2e33}.cls-6{fill:#fec340}.cls-10{fill:#b99fcc;mix-blend-mode:multiply}</style></defs><g style="isolation:isolate"><g id="Layer_1"><path d="M35.66 10.52c.2.53.57.78 1.19 1.17.79-1.39 2.04-2.63 3.63-3.92-.49-.33-.7-.66-.95-1.26-1.76 1.27-2.63 2.14-3.87 4.02Z" class="cls-5"/><path d="M32.27 29.06c-.22.59-.08 1.12.34 1.88 1.27-.52 2.08-.68 3.38-.67-.28-.57-.28-1.04-.11-1.97-1.33 0-2.34.26-3.62.76Z" style="fill:#4dbfa3"/><path d="M83.06 26.37c-.84.26-1.78.18-3.7-.76-.27.88-.26 1.73.08 2.83 1.52.51 2.47.68 4.01.49-.44-.84-.48-1.43-.4-2.56Z" style="fill:url(#linear-gradient)"/><path d="M43.42 27.39c0 .79-.1 1.47-.31 2.05-.21.58-.49 1.08-.86 1.49-.37.42-.81.76-1.32 1.02-.52.26-1.08.47-1.71.62-.62.15-1.29.26-1.99.32-.71.06-1.44.09-2.19.09H20.37V12.75h14.41c.58 0 1.16.02 1.74.07.58.05 1.14.14 1.67.27s1.02.32 1.48.55c.46.24.85.54 1.19.93.34.38.6.84.79 1.38.19.54.29 1.18.29 1.91 0 1.32-.32 2.36-.97 3.13-.65.77-1.67 1.28-3.06 1.54.98.07 1.82.22 2.52.45s1.27.54 1.71.94c.44.4.77.88.97 1.46.21.57.31 1.24.31 2.01Zm-6.81-8.65c0-.25-.04-.5-.12-.73-.08-.23-.22-.43-.43-.61s-.49-.32-.84-.43c-.35-.11-.8-.16-1.35-.16h-8.05v3.8h8.05c.55 0 1-.05 1.35-.15.35-.1.63-.23.84-.4.21-.17.35-.37.43-.6.08-.23.12-.47.12-.73Zm1.27 8.02c0-.46-.08-.83-.24-1.11-.16-.28-.4-.5-.74-.65-.33-.15-.77-.25-1.3-.3-.53-.05-1.16-.07-1.9-.07h-7.89v4.28h7.89c.74 0 1.37-.02 1.9-.07.53-.05.96-.15 1.3-.31.33-.16.58-.38.74-.65.16-.28.24-.65.24-1.11ZM69.13 31.97c-1.66.55-3.31.94-4.97 1.18-1.65.24-3.34.36-5.07.36-2.21 0-4.17-.24-5.89-.71-1.72-.48-3.17-1.17-4.35-2.07a8.957 8.957 0 0 1-2.69-3.31c-.62-1.3-.93-2.78-.93-4.43 0-1.53.31-2.95.93-4.26.62-1.31 1.51-2.45 2.65-3.41 1.14-.97 2.52-1.72 4.14-2.27 1.62-.54 3.42-.82 5.42-.82 1.83 0 3.51.25 5.04.74 1.53.5 2.84 1.23 3.93 2.2 1.09.97 1.94 2.17 2.55 3.59.6 1.42.91 3.06.91 4.92v1.35H50.87c.18.64.47 1.22.88 1.75.41.53.96.98 1.66 1.35.7.37 1.55.66 2.57.87 1.02.21 2.23.31 3.64.31 1 0 1.98-.06 2.94-.18s1.86-.28 2.69-.49c.83-.2 1.59-.42 2.26-.67.67-.25 1.21-.49 1.63-.74v4.72Zm-3.77-10.93c-.05-.5-.2-1.02-.45-1.55s-.65-1.02-1.18-1.45c-.54-.43-1.25-.79-2.12-1.07-.87-.28-1.96-.42-3.27-.42-1.23 0-2.29.15-3.18.46-.89.3-1.64.68-2.24 1.13-.6.45-1.07.94-1.41 1.46-.33.52-.55 1-.65 1.44h14.5ZM93.45 12.75l5.17 14.04 5.59-14.04h5.67l-8.12 20.22H95.7l-5.28-13.6-5.27 13.6h-6.06l-8.14-20.22h5.68L82.1 26.5l5.28-13.75h6.08ZM128.68 32.97v-1.99c-.7.38-1.44.72-2.24 1.02-.8.29-1.63.54-2.49.75-.86.21-1.75.36-2.67.46-.92.1-1.84.15-2.77.15-1.09 0-2.14-.1-3.16-.31s-1.92-.54-2.7-1a5.38 5.38 0 0 1-1.89-1.81c-.48-.75-.71-1.66-.71-2.74 0-1.36.37-2.5 1.12-3.41.75-.91 1.88-1.65 3.41-2.23 1.53-.58 3.47-1.03 5.81-1.34 2.34-.31 5.11-.56 8.31-.74v-.43c0-.33-.09-.66-.27-.99-.18-.33-.5-.62-.96-.87-.47-.25-1.1-.45-1.91-.61-.81-.16-1.84-.24-3.1-.24-.99 0-1.97.05-2.94.15-.97.1-1.9.24-2.8.42-.9.18-1.75.38-2.55.62-.8.24-1.54.48-2.19.74v-4.86a41.537 41.537 0 0 1 4.97-.95c.92-.12 1.85-.22 2.8-.29.94-.07 1.84-.11 2.71-.11 1.7 0 3.26.14 4.69.42 1.43.28 2.67.71 3.7 1.3 1.03.59 1.84 1.33 2.43 2.24.58.9.88 1.98.88 3.22v13.41h-5.46Zm0-9.23c-2.1.08-3.88.19-5.35.34-1.47.15-2.69.32-3.66.52-.97.2-1.73.41-2.29.63-.55.23-.97.46-1.24.69-.27.24-.44.47-.51.71-.06.24-.1.45-.1.65 0 .24.06.46.19.68.13.22.35.41.67.58.32.17.74.3 1.27.4.53.1 1.2.15 2 .15.89 0 1.77-.07 2.62-.21.85-.14 1.66-.33 2.43-.57s1.48-.52 2.16-.85c.67-.33 1.27-.68 1.8-1.05v-2.66ZM157.78 32.97c-.1-1.1-.36-2.06-.79-2.89-.43-.83-.97-1.54-1.63-2.14-.65-.6-1.39-1.09-2.21-1.49a14.7 14.7 0 0 0-2.52-.93c-.86-.23-1.72-.39-2.58-.49-.86-.09-1.66-.14-2.39-.14h-1.62v8.08h-5.46V12.75h5.46v7.8h1.12c.76 0 1.55-.06 2.37-.18.82-.12 1.64-.3 2.45-.56.81-.25 1.59-.58 2.33-.99.75-.4 1.41-.89 2-1.47.59-.58 1.08-1.25 1.47-2.01.39-.76.64-1.63.74-2.6h5.56c-.1 1.07-.31 2.04-.64 2.9-.33.86-.74 1.64-1.22 2.32-.49.68-1.03 1.28-1.63 1.79-.6.51-1.21.95-1.84 1.32-.63.37-1.25.67-1.88.91-.62.24-1.2.42-1.74.55.69.11 1.4.28 2.14.51.74.23 1.47.53 2.2.91.73.38 1.42.84 2.08 1.39a10.327 10.327 0 0 1 3.11 4.45c.35.94.58 2 .68 3.18h-5.56ZM234.42 17.06c-.64 0-1.21.02-1.71.07s-.93.17-1.29.35c-.35.19-.62.46-.81.83-.19.37-.28.87-.28 1.51v.75h15.25v4.31h-15.25v8.08h-5.46v-13.6c0-1.04.15-1.97.46-2.8.31-.82.83-1.52 1.55-2.08.73-.56 1.69-1 2.88-1.29 1.2-.3 2.69-.45 4.47-.45h12.05v4.31H234.4Z" class="cls-4"/><path d="M133.04 22.57c.84.26 1.78.18 3.7-.76.27.88.26 1.73-.08 2.83-1.52.51-2.47.68-4.01.49.44-.84.48-1.43.4-2.56ZM92.44 14.18c.2.53.57.78 1.19 1.17.79-1.39 2.04-2.63 3.63-3.92-.49-.33-.7-.66-.95-1.26-1.76 1.27-2.63 2.14-3.87 4.02Z" class="cls-5"/><path d="M75.77 25.14c-.22.59-.08 1.12.34 1.88 1.27-.52 2.08-.68 3.38-.67-.28-.57-.28-1.04-.11-1.97-1.33 0-2.34.26-3.62.76Z" style="fill:url(#linear-gradient-2)"/><path d="M237.25 24.58c-.22.59-.08 1.12.34 1.88 1.27-.52 2.08-.68 3.38-.67-.28-.57-.28-1.04-.11-1.97-1.33 0-2.34.26-3.62.76Z" style="fill:url(#linear-gradient-3)"/><path d="M225.78 12.22c.84.26 1.78.18 3.7-.76.27.88.26 1.73-.08 2.83-1.52.51-2.47.68-4.01.49.44-.84.48-1.43.4-2.56Z" class="cls-5"/><path d="M163.99 20.68s.02.04.04.05c.82 1.07 4.59-.06 8.5-2.56 3.92-2.5 6.53-5.44 5.91-6.63-.01-.02-.02-.04-.03-.05s-.02-.04-.04-.05c-.82-1.07-4.59.06-8.5 2.56-3.92 2.5-6.53 5.44-5.91 6.63.01.02.02.04.03.05Z" style="fill:url(#linear-gradient-4)"/><path d="M192.55 22.72c0 1.78-.33 3.34-.98 4.7a9.168 9.168 0 0 1-2.8 3.41c-1.21.91-2.69 1.6-4.42 2.07-1.73.47-3.68.7-5.83.7s-4.11-.23-5.85-.7c-1.74-.47-3.22-1.16-4.45-2.07a9.247 9.247 0 0 1-2.83-3.41c-.66-1.36-.99-2.93-.99-4.7s.33-3.34.99-4.7c.66-1.36 1.61-2.5 2.83-3.41 1.22-.91 2.71-1.6 4.45-2.07 1.74-.47 3.69-.7 5.85-.7s4.1.23 5.83.7c1.73.47 3.2 1.16 4.42 2.07 1.21.91 2.15 2.05 2.8 3.41.65 1.36.98 2.93.98 4.7ZM222.44 22.72c0 1.78-.33 3.34-.98 4.7a9.168 9.168 0 0 1-2.8 3.41c-1.21.91-2.69 1.6-4.42 2.07-1.73.47-3.68.7-5.83.7s-4.11-.23-5.85-.7c-1.74-.47-3.22-1.16-4.45-2.07a9.247 9.247 0 0 1-2.83-3.41c-.66-1.36-.99-2.93-.99-4.7s.33-3.34.99-4.7c.66-1.36 1.61-2.5 2.83-3.41 1.22-.91 2.71-1.6 4.45-2.07 1.74-.47 3.69-.7 5.85-.7s4.1.23 5.83.7c1.73.47 3.2 1.16 4.42 2.07 1.21.91 2.15 2.05 2.8 3.41.65 1.36.98 2.93.98 4.7ZM222.37 13.71l-1.99-2.38a9.49 9.49 0 0 0-7.06-3.2l-4.12-.02.02-4.14 4.12.02c3.89.02 7.6 1.71 10.17 4.63l.04.04 2 2.41-3.18 2.65ZM166.94 13.42l1.97-2.4a9.46 9.46 0 0 1 7.03-3.25l4.12-.05-.05-4.14-4.12.05a13.63 13.63 0 0 0-10.13 4.7l-.03.04-1.99 2.42 3.2 2.63Z" class="cls-4"/><path d="m163.53 2.23 14.88 11.81-10.45 6.66-4.43-18.47z" style="fill:#51aee2"/><path d="m199.08 32.48 5.75 2.34c2.66 1.08 5.7-.2 6.79-2.86a4.35 4.35 0 0 0-2.39-5.66c-1.87-.76-4.01.14-4.77 2.01-.65 1.59.12 3.4 1.7 4.05 1.36.55 2.92-.1 3.47-1.46.19-.46-.03-.99-.5-1.18s-.99.03-1.18.5-.68.65-1.12.47c-.66-.27-.98-1.03-.71-1.7.39-.95 1.47-1.4 2.41-1.02 1.3.53 1.92 2.01 1.39 3.31a3.41 3.41 0 0 1-4.43 1.87l-5.75-2.34c-.46-.19-.99.03-1.18.5s.03.99.5 1.18Z" style="fill:#e3604a"/><path d="M164.28 2.65a.94.94 0 0 1-1.3.29.94.94 0 0 1-.29-1.3.94.94 0 0 1 1.3-.29c.44.28.57.86.29 1.3ZM199.27 32.859l-4.426-1.803.89-2.186 4.427 1.803z" class="cls-5"/><path d="m193.41 29.8 1.43 1.25.89-2.18-1.9-.1-.42 1.03zM192.507 29.433l.419-1.028.898.365-.418 1.028z" class="cls-4"/><path d="m165.9 8.05 1.52-2.73-.35-.28-1.44 2.59-.74.07.1.43.91-.08zM168.43 6.74l.69-.07-.5-.4-.46.05-1.57 2.81-1.33.13.1.43 1.5-.14 1.57-2.81zM164.94 6.54l1.23-2.21-.35-.28-1.15 2.07-.16.02.11.43.32-.03zM173.92 15.35l-1.42 2.55.79-.51.9-1.62 1.93-.18.82-.53-3.02.29zM168.02 20.75l.55-.35.84-1.51 1.8-.17.82-.52-2.89.27-1.17 2.09.05.19zM169.39 8.24l1.52-.14-.5-.4-1.29.12-1.57 2.82-1.92.18.11.44 2.08-.2 1.57-2.82z" class="cls-10"/><path d="m168.45 17.39 3.21-.31 1.57-2.82 3.21-.3.57-1.03-.36-.28-.49.89-3.2.3-1.57 2.82-3.21.31-.75 1.34.15.63.87-1.55z" class="cls-10"/><path d="m175.48 12.45.28-.51-.35-.28-.21.37-3.2.31-1.57 2.81-3.21.31-.33.59.15.64.45-.81 3.21-.31 1.57-2.81 3.21-.31zM164.17 4.7l.75-1.36-.35-.28-.56 1.01.16.63z" class="cls-10"/><path d="m171.31 11.25 3.2-.3-.5-.4-2.97.28-1.57 2.82-3.09.29.12.49.03-.05 3.21-.31 1.57-2.82z" class="cls-10"/><path d="m170.35 9.75 2.36-.23-.5-.4-2.13.21-1.57 2.81-2.5.24.1.44 2.67-.26 1.57-2.81z" class="cls-10"/><g style="clip-path:url(#clippath)"><circle cx="205.81" cy="29.87" r=".94" class="cls-6"/><circle cx="211.16" cy="32.17" r=".97" class="cls-6"/><circle cx="208.39" cy="25.85" r="1.56" class="cls-6" transform="rotate(-67.84 208.382 25.851)"/><circle cx="202.08" cy="33.36" r=".91" class="cls-6"/><circle cx="206.29" cy="33.41" r=".72" class="cls-6"/></g><path d="M255.26 14.08h-.07c-.07 0-.14-.01-.22-.02h-.03c-.02 0-.04-.01-.06 0h-.03c-.06 0-.11-.02-.17-.03h-.06c-.01-.02-.03-.02-.05-.02h-.02c-.2-.05-.39-.09-.59-.16-.09-.03-.17-.07-.26-.1 0 0-.02-.01-.03-.01-.03-.02-.06-.03-.09-.04 0 0 0-.01-.01 0 0 0 0-.01-.01 0 0 0 0-.01-.01 0h-.02s0-.01-.01-.02c-.09-.05-.19-.1-.28-.15-.09-.06-.18-.12-.28-.18-.03-.02-.05-.04-.08-.06-.02-.02-.04-.03-.07-.05-.11-.09-.23-.18-.34-.28-.19-.18-.36-.37-.52-.57-.02-.02-.03-.04-.05-.07-.02-.03-.04-.05-.06-.08-.06-.09-.12-.18-.18-.28-.02-.04-.05-.08-.07-.12v-.02c-.05-.11-.11-.22-.16-.33-.01-.03-.02-.05-.03-.08-.06-.17-.13-.34-.17-.52l-.06-.28c0-.02 0-.03-.02-.04v-.06c0-.06-.02-.11-.03-.17v-.12c0-.07-.01-.13-.02-.2v-.55a4.341 4.341 0 0 1 .53-1.82c0-.01.01-.02.02-.04.01-.01.02-.03.03-.05l.2-.3v-.01s.01-.02.02-.03l.08-.11s.02-.02.02-.03a5.679 5.679 0 0 1 .76-.75c.01 0 .02-.02.03-.02l.11-.08s.02-.01.02-.02h.01c.1-.07.2-.13.3-.2.02 0 .03-.01.05-.03l.12-.06c.13-.07.28-.13.42-.2.1-.04.2-.07.3-.11.23-.07.45-.12.69-.16h.02c.08 0 .16-.02.24-.03h.03c.17-.01.33 0 .5-.01h.1c.07 0 .13.01.2.02h.04c.02.01.03 0 .05 0h.02c.1.02.21.04.32.06.41.08.8.23 1.17.42h.03c.04.03.08.05.13.07.09.05.17.11.26.16.03.02.05.04.08.06.02.02.04.03.07.05.11.09.23.18.34.28.19.18.36.37.52.57.02.02.03.04.05.07.02.03.04.05.06.08.05.09.11.17.16.26.03.05.06.1.08.15.03.06.06.11.09.17.02.04.03.07.05.11.08.19.15.38.21.57.04.15.08.31.11.46V9c0 .06.02.11.03.17V9.29c0 .07 0 .14.02.22v.08c0 .17 0 .34-.01.51v.02c-.01.1-.03.2-.04.3v.02c-.03.15-.06.29-.1.44-.02.06-.04.13-.06.19-.03.1-.07.2-.1.29a5.2 5.2 0 0 1-.26.53v.03c-.07.11-.14.22-.21.32v.01s-.01.02-.02.02l-.08.11c0 .01-.02.02-.02.03a5.679 5.679 0 0 1-.76.75l-.03.02-.12.09h-.02a8.9 8.9 0 0 0-.32.21h-.02c-.04.02-.08.04-.11.06-.14.07-.28.13-.42.2l-.3.11c-.15.04-.3.08-.45.11-.08.01-.16.03-.24.05h-.02c-.08 0-.16.02-.24.03h-.02c-.17 0-.34.01-.51.01Zm-1.73-7.26s-.02 0-.03.02c-.04.02-.08.05-.12.08 0 0-.01 0-.02.01-.11.08-.22.17-.32.26-.16.15-.3.3-.42.48 0 0 0 .01-.01.02-.03.04-.06.07-.08.12s-.02.02-.02.03c0 .01-.01.02-.02.03v.01a3.523 3.523 0 0 0-.3.58c-.03.07-.06.15-.08.22-.07.21-.11.43-.14.65v.02c-.01.09-.02.19-.02.28v.36c.02.23.05.46.13.69v.03c.03.11.07.22.12.33.02.06.04.11.07.16.07.16.16.32.26.46s.01.02.02.03c0 .01.01.02.02.03s.02.04.04.06c.06.1.14.18.21.26.15.16.31.32.49.44.02.02.04.03.06.04.02.02.05.04.08.06.14.1.29.19.45.26.05.03.1.05.16.07.1.05.21.09.32.12s.02 0 .03 0c.16.05.33.09.5.11h.02c.05.01.11.02.17.02h.03c.08.01.16.01.25 0h.09c.09 0 .18 0 .27-.02h.02c.07 0 .15-.02.22-.03.16-.03.31-.06.46-.12.07-.02.13-.04.19-.07.13-.05.26-.11.38-.18.08-.04.15-.08.23-.13.02-.01.03-.02.05-.03.04-.02.08-.05.12-.08 0 0 .01 0 .02-.01.12-.08.23-.18.33-.28.15-.14.29-.29.41-.47l.02-.02c.03-.04.06-.07.08-.12v-.01c.06-.08.11-.17.15-.26.07-.12.13-.25.18-.38.03-.06.05-.12.07-.18.08-.22.13-.45.15-.69v-.02c0-.07.03-.14.01-.22V9.41c0-.08 0-.16-.03-.24v-.02a2.07 2.07 0 0 0-.1-.43c0-.02 0-.05-.02-.07-.03-.1-.06-.2-.11-.3a.774.774 0 0 0-.07-.16c0-.03-.02-.05-.04-.08-.06-.13-.13-.25-.22-.37-.02-.03-.03-.06-.06-.08-.01-.03-.04-.06-.06-.08 0 0 0-.01-.01-.02-.05-.08-.12-.15-.19-.23-.14-.15-.29-.29-.45-.41 0 0-.01 0-.02-.01a.18.18 0 0 0-.07-.05s-.02-.01-.03-.02c-.01 0-.02-.01-.03-.02-.11-.08-.24-.16-.36-.22-.08-.05-.16-.08-.25-.12a.502.502 0 0 0-.13-.05c-.22-.08-.44-.14-.68-.17h-.02s-.03-.01-.05 0h-.02c-.05-.02-.11-.02-.17-.02h-.03c-.08-.01-.16-.01-.25 0h-.1c-.09 0-.18 0-.26.02h-.02c-.07 0-.14.02-.22.03-.15.03-.29.06-.43.11-.08.02-.15.05-.23.08-.13.05-.26.11-.38.18-.07.03-.14.07-.2.12h-.01c-.01 0-.02.01-.03.02Z" class="cls-4"/><path d="M257.62 11.91h-1.17c-.06.01-.09-.02-.12-.08a1.14 1.14 0 0 0-.1-.19c-.02-.05-.05-.1-.07-.15-.02-.05-.05-.09-.07-.14-.09-.2-.18-.39-.28-.58-.06-.13-.13-.25-.22-.36a.617.617 0 0 0-.51-.23c-.13-.01-.25 0-.38 0-.01 0-.02 0-.02.02V11.87c0 .05 0 .06-.06.06h-1.11c-.01-.05 0-.1 0-.15V7.41c0-.04.01-.04.05-.04H255.53c.07 0 .14.01.22.02h.04c.02.01.04 0 .06 0h.02c.11.02.22.04.32.07h.02c.14.05.28.1.41.19.04.03.08.07.12.1l.05.05c.08.1.14.21.19.32.01.05.03.09.04.14 0 .04 0 .07.02.11v.02c.01.15.02.29 0 .44-.03.22-.1.41-.25.58-.11.13-.24.21-.38.29-.01 0-.03.01-.04.02-.04.02-.08.03-.12.05-.02 0-.04.01-.07.02.05.02.09.03.13.04.11.05.21.12.29.21a.5.5 0 0 0 .07.08c.11.12.19.26.27.4.04.08.08.17.13.25.07.15.14.29.21.44.01.04.04.08.06.12.09.19.19.38.28.57v.02Zm-2.49-3.7H254.72c-.03 0-.03 0-.03.03v1.1c0 .02 0 .03.03.03.21 0 .42 0 .63-.01.11-.01.22-.03.31-.1s.02 0 .03-.02c.07-.05.12-.11.14-.2.04-.08.04-.16.04-.24 0-.11 0-.22-.05-.32l-.03-.06a.284.284 0 0 0-.09-.1c0-.01-.02-.02-.03-.02-.13-.09-.27-.1-.42-.11h-.12Z" class="cls-4"/></g></g></svg>